# xmcd
#
# Track frame offsets:
#	150
#	16064
#	26973
#	39198
#	51712
#	64010
#	77426
#	91173
#	103847
#	116894
#	129723
#	143381
#	155571
#	165915
#	181826
#	194328
#	215334
#	225540
#	238134
#	252793
#	264911
#	278997
#	291228
#	301805
#	314419
#
# Disc length: 4381 seconds
#
# Revision: 1
# Processed by: cddbd v1.4PL0 Copyright (c) Steve Scherf et al.
# Submitted via: audiograbber 1.81.03
#
DISCID=57111b19
DTITLE=Varios Artistas - Corridos Con Banda
DYEAR=2002
DGENRE=Latin
TTITLE0=Introduccion (Corridos A Balazos)
TTITLE1=Huevos Y Frijoles
TTITLE2=Era Cabron El Viejo
TTITLE3=Las Dos Hectareas
TTITLE4=El Clavo
TTITLE5=La Merma Del Traficante
TTITLE6=Laurita Garza
TTITLE7=Los Dos Sinaloenses
TTITLE8=Catarino Y Los Rurales
TTITLE9=Los Hermanos Bedolla
TTITLE10=El Molino
TTITLE11=El Judas De Monterrey
TTITLE12=El Ayudante
TTITLE13=El Leon De La Sierra
TTITLE14=Los Tres Encajuelados
TTITLE15=Manuel Juarez
TTITLE16=Mi Clavo
TTITLE17=De Sinaloa A California
TTITLE18=El Aguila Real
TTITLE19=El Vanidoso
TTITLE20=El Tarasco
TTITLE21=El Granero
TTITLE22=El Balido Del Ganado
TTITLE23=El 24 De Junio
TTITLE24=100 Kilos De Reina
EXTD=Carlos_Mp3s Music
EXTT0=
EXTT1=
EXTT2=
EXTT3=
EXTT4=
EXTT5=
EXTT6=
EXTT7=
EXTT8=
EXTT9=
EXTT10=
EXTT11=
EXTT12=
EXTT13=
EXTT14=
EXTT15=
EXTT16=
EXTT17=
EXTT18=
EXTT19=
EXTT20=
EXTT21=
EXTT22=
EXTT23=
EXTT24=
PLAYORDER=
